<svg width="177" height="18" viewBox="0 0 177 18" fill="none" xmlns="http://www.w3.org/2000/svg">
<path d="M32.6576 0.747437H35.9583L41.5682 10.8975L47.1781 0.747437H50.4049V17.425H47.713V4.64394L42.7946 13.4937H40.2679L35.3495 4.64394V17.425H32.6576V0.747437Z" fill="#1C2B33"/>
<path d="M59.0894 17.725C57.8413 17.725 56.7454 17.4511 55.8017 16.8988C54.8668 16.3552 54.1014 15.5594 53.5926 14.607C53.0664 13.6285 52.8011 12.5109 52.8011 11.2497C52.8011 9.97118 53.0577 8.8405 53.5752 7.85333C54.0927 6.87051 54.8102 6.09643 55.7235 5.54413C56.6411 4.98749 57.6935 4.70917 58.885 4.70917C60.0679 4.70917 61.0855 4.98749 61.9422 5.54848C62.7946 6.10947 63.4512 6.89225 63.9122 7.90117C64.3732 8.91008 64.6037 10.0929 64.6037 11.4498V12.1891H55.4669C55.6321 13.2067 56.0453 14.0068 56.6976 14.5896C57.3543 15.1723 58.1805 15.4637 59.1807 15.4637C59.9809 15.4637 60.6724 15.3463 61.2551 15.1071C61.8335 14.8679 62.3771 14.5069 62.8859 14.0242L64.3166 15.7768C62.8989 17.0727 61.1551 17.725 59.0894 17.725ZM61.0551 7.83159C60.4897 7.25755 59.7504 6.96618 58.8415 6.96618C57.95 6.96618 57.2064 7.2619 56.6063 7.84898C56.0061 8.43606 55.6278 9.22754 55.4669 10.2191H62.0205C61.9422 9.20145 61.6204 8.40562 61.0551 7.83159Z" fill="#1C2B33"/>
<path d="M67.8696 7.20536H65.3908V5.00053H67.8696V1.35626H70.4658V5.00053H74.2319V7.20536H70.4658V12.7935C70.4658 13.7242 70.6267 14.3852 70.9442 14.7809C71.2617 15.1767 71.8052 15.3767 72.575 15.3767C72.8663 15.381 73.1577 15.3637 73.4447 15.3332C73.6839 15.3071 73.9448 15.268 74.2319 15.2201V17.3989C73.9057 17.4946 73.5752 17.5641 73.236 17.612C72.8533 17.6685 72.4619 17.6946 72.0749 17.6946C69.2699 17.6946 67.8696 16.1638 67.8696 13.0979V7.20536Z" fill="#1C2B33"/>
<path d="M87.7652 17.425H85.2125V15.6855C84.7733 16.3247 84.1775 16.8422 83.4861 17.1945C82.7859 17.5467 81.9944 17.725 81.1029 17.725C80.007 17.725 79.0373 17.4467 78.1892 16.8857C77.3412 16.3247 76.6802 15.555 76.1932 14.5765C75.7104 13.5937 75.4669 12.4761 75.4669 11.2106C75.4669 9.94074 75.7148 8.81441 76.2062 7.84028C76.6976 6.86181 77.3804 6.09643 78.2501 5.53978C79.1199 4.98314 80.1201 4.70482 81.2464 4.70482C82.0944 4.70482 82.8598 4.87007 83.5339 5.20058C84.1993 5.52239 84.7776 6.0051 85.2125 6.60088V5.00488H87.7609V17.425H87.7652ZM85.1647 9.34931C84.8864 8.64046 84.4471 8.08381 83.847 7.67503C83.2469 7.26624 82.5554 7.06185 81.7683 7.06185C80.655 7.06185 79.7722 7.43585 79.1112 8.17949C78.4502 8.92748 78.124 9.93639 78.124 11.2062C78.124 12.4848 78.4415 13.498 79.0764 14.2417C79.7113 14.9897 80.5724 15.3593 81.6596 15.3593C82.4597 15.3593 83.1773 15.1549 83.8035 14.7418C84.421 14.3417 84.8951 13.759 85.1603 13.0762L85.1647 9.34931Z" fill="#1C2B33"/>
<path d="M94.0883 0.747437H96.8498V7.75331H105.369V0.747437H108.13V17.425H105.369V10.3147H96.8498V17.425H94.0883V0.747437Z" fill="#1C2B33"/>
<path d="M111.262 14.6157C110.727 13.6372 110.457 12.5065 110.457 11.2193C110.457 9.92334 110.727 8.78832 111.262 7.81419C111.779 6.85746 112.553 6.06598 113.501 5.52674C114.458 4.97879 115.567 4.70482 116.832 4.70482C118.094 4.70482 119.207 4.97879 120.164 5.52674C121.112 6.06598 121.886 6.85746 122.403 7.81419C122.938 8.79266 123.208 9.92769 123.208 11.2193C123.208 12.5065 122.938 13.6372 122.403 14.6157C121.886 15.5724 121.112 16.3639 120.164 16.9031C119.207 17.4511 118.098 17.725 116.832 17.725C115.576 17.725 114.471 17.4511 113.51 16.9031C112.558 16.3639 111.779 15.5724 111.262 14.6157ZM120.546 11.2193C120.546 9.97118 120.207 8.97096 119.529 8.21863C118.85 7.46629 117.95 7.08794 116.832 7.08794C115.715 7.08794 114.815 7.46629 114.136 8.21863C113.458 8.97096 113.119 9.97553 113.119 11.2193C113.119 12.4587 113.458 13.4545 114.136 14.2112C114.815 14.9636 115.715 15.3419 116.832 15.3419C117.95 15.3419 118.85 14.9636 119.529 14.2112C120.207 13.4545 120.546 12.4587 120.546 11.2193Z" fill="#1C2B33"/>
<path d="M125.395 5.00053H127.957V6.9053C128.757 5.51369 129.853 4.82224 131.244 4.82224C131.697 4.82224 132.066 4.86137 132.353 4.93965V7.33583C131.962 7.27929 131.57 7.2532 131.175 7.2532C129.618 7.2532 128.557 7.95335 127.996 9.34931V17.425H125.395V5.00053Z" fill="#1C2B33"/>
<path d="M134.314 2.90008C133.997 2.58697 133.836 2.18688 133.836 1.70417C133.836 1.21276 133.997 0.812671 134.314 0.499559C134.632 0.190797 135.041 0.0342407 135.541 0.0342407C136.041 0.0342407 136.45 0.190797 136.767 0.499559C137.085 0.808322 137.246 1.20841 137.246 1.70417C137.246 2.18688 137.085 2.58697 136.767 2.90008C136.45 3.21319 136.041 3.36975 135.541 3.36975C135.041 3.36975 134.632 3.21319 134.314 2.90008ZM134.245 5.00054H136.841V17.425H134.245V5.00054Z" fill="#1C2B33"/>
<path d="M142.473 15.2201H149.561V17.425H139.259V15.3289L146.226 7.20536H139.494V5.00053H149.444V7.0836L142.473 15.2201Z" fill="#1C2B33"/>
<path d="M151.357 14.6157C150.822 13.6372 150.553 12.5065 150.553 11.2193C150.553 9.92334 150.822 8.78832 151.357 7.81419C151.875 6.85746 152.649 6.06598 153.597 5.52674C154.554 4.97879 155.663 4.70482 156.928 4.70482C158.189 4.70482 159.303 4.97879 160.259 5.52674C161.207 6.06598 161.981 6.85746 162.499 7.81419C163.034 8.79266 163.303 9.92769 163.303 11.2193C163.303 12.5065 163.034 13.6372 162.499 14.6157C161.981 15.5724 161.207 16.3639 160.259 16.9031C159.303 17.4511 158.194 17.725 156.928 17.725C155.671 17.725 154.567 17.4511 153.606 16.9031C152.653 16.3639 151.875 15.5724 151.357 14.6157ZM160.642 11.2193C160.642 9.97118 160.303 8.97096 159.624 8.21863C158.946 7.46629 158.046 7.08794 156.928 7.08794C155.81 7.08794 154.91 7.46629 154.232 8.21863C153.553 8.97096 153.214 9.97553 153.214 11.2193C153.214 12.4587 153.553 13.4545 154.232 14.2112C154.91 14.9679 155.81 15.3419 156.928 15.3419C158.046 15.3419 158.946 14.9636 159.624 14.2112C160.303 13.4545 160.642 12.4587 160.642 11.2193Z" fill="#1C2B33"/>
<path d="M165.491 5.00053H168.052V6.80962C169.013 5.40497 170.353 4.70047 172.066 4.70047C173.545 4.70047 174.68 5.16144 175.471 6.08338C176.267 7.00532 176.663 8.323 176.663 10.0364V17.4206H174.067V10.3495C174.067 9.1884 173.862 8.33604 173.449 7.7881C173.036 7.24015 172.388 6.96618 171.505 6.96618C170.735 6.96618 170.057 7.16622 169.47 7.56196C168.883 7.9577 168.422 8.51434 168.087 9.22754V17.425H165.491V5.00053Z" fill="#1C2B33"/>
<path d="M8.27835 0.182098C8.26965 0.182098 8.26096 0.182098 8.25226 0.182098L8.21747 3.04794C8.22617 3.04794 8.23486 3.04794 8.23921 3.04794C10.1266 3.04794 11.5921 4.53522 14.7754 9.89725L14.9711 10.2234L14.9842 10.2452L16.7672 7.57066L16.7541 7.54892C16.3366 6.86616 15.9322 6.23994 15.5451 5.6659C15.0972 5.00054 14.6667 4.4091 14.2536 3.87855C12.1488 1.20406 10.3875 0.182098 8.27835 0.182098Z" fill="url(#paint0_linear_2_131)"/>
<path d="M8.25226 0.182098C6.13441 0.195145 4.26444 1.56066 2.91197 3.65677C2.90762 3.66112 2.90327 3.66981 2.89893 3.67416L5.38207 5.02663C5.38642 5.02228 5.39077 5.01358 5.39512 5.00924C6.18225 3.82202 7.16507 3.06099 8.22182 3.05229C8.23052 3.05229 8.23922 3.05229 8.24357 3.05229L8.27836 0.186447C8.26966 0.182098 8.26096 0.182098 8.25226 0.182098Z" fill="url(#paint1_linear_2_131)"/>
<path d="M2.91198 3.65677C2.90763 3.66112 2.90328 3.66982 2.89893 3.67416C2.01178 5.05707 1.35077 6.75309 0.989822 8.58393C0.989822 8.59262 0.985474 8.60132 0.985474 8.60567L3.77304 9.26233C3.77304 9.25364 3.77739 9.24494 3.77739 9.24059C4.07745 7.63155 4.64279 6.13992 5.37773 5.02228C5.38208 5.01793 5.38643 5.00924 5.39078 5.00489L2.91198 3.65677Z" fill="url(#paint2_linear_2_131)"/>
<path d="M3.78172 9.24059L0.994157 8.58392C0.994157 8.59262 0.989808 8.60132 0.989808 8.60567C0.794114 9.61023 0.694092 10.6365 0.694092 11.6585C0.694092 11.6672 0.694092 11.6759 0.694092 11.6846L3.55123 11.9412C3.55123 11.9325 3.55123 11.9238 3.55123 11.9151C3.55123 11.8542 3.55123 11.7933 3.55123 11.7324C3.55123 10.9018 3.62951 10.0756 3.77737 9.26233C3.77737 9.25798 3.77737 9.24928 3.78172 9.24059Z" fill="url(#paint3_linear_2_131)"/>
<path d="M3.63822 12.8327C3.58603 12.537 3.55994 12.2412 3.55124 11.9412C3.55124 11.9325 3.55124 11.9238 3.55124 11.9151L0.694099 11.6585C0.694099 11.6672 0.694099 11.6759 0.694099 11.6846C0.68975 12.2847 0.741935 12.8805 0.850654 13.4719C0.850654 13.4806 0.855003 13.4893 0.855003 13.4937L3.64257 12.8501C3.64257 12.8501 3.63822 12.8414 3.63822 12.8327Z" fill="url(#paint4_linear_2_131)"/>
<path d="M4.29052 14.3156C3.97741 13.9764 3.75998 13.485 3.64256 12.8588C3.64256 12.8501 3.63821 12.8414 3.63821 12.837L0.850647 13.4763C0.850647 13.485 0.854996 13.4937 0.854996 13.498C1.06374 14.6026 1.48122 15.5289 2.07265 16.2247C2.077 16.2291 2.08135 16.2378 2.09005 16.2421L4.31227 14.3286C4.29922 14.3243 4.29487 14.32 4.29052 14.3156Z" fill="url(#paint5_linear_2_131)"/>
<path d="M12.5532 6.3791C10.8745 8.95793 9.85258 10.5757 9.85258 10.5757C7.61297 14.0851 6.83889 14.8723 5.59514 14.8723C5.07328 14.8723 4.63841 14.6853 4.3079 14.333C4.30355 14.3287 4.29485 14.32 4.29051 14.3156L2.07263 16.2291C2.07698 16.2334 2.08133 16.2421 2.09003 16.2465C2.9076 17.1988 4.06002 17.7294 5.49077 17.7294C7.65211 17.7294 9.20462 16.7118 11.9661 11.8846C11.9661 11.8846 13.1185 9.85377 13.91 8.45347C13.4099 7.65764 12.962 6.97054 12.5532 6.3791Z" fill="#0080F9"/>
<path d="M15.5451 2.313C15.5408 2.31735 15.5321 2.32605 15.5277 2.3304C15.0711 2.82181 14.6449 3.33931 14.2492 3.88291C14.6667 4.41346 15.0929 5.00489 15.5408 5.67026C16.067 4.85704 16.5628 4.19602 17.0455 3.68722C17.0498 3.68287 17.0585 3.67417 17.0629 3.66982L15.5451 2.313Z" fill="url(#paint6_linear_2_131)"/>
<path d="M23.7035 2.06077C22.5336 0.877902 21.1333 0.182098 19.6417 0.182098C18.0675 0.182098 16.7411 1.0475 15.5452 2.313C15.5408 2.31735 15.5321 2.32604 15.5278 2.33039L17.0498 3.68721C17.0542 3.68286 17.0629 3.67416 17.0672 3.66981C17.8544 2.85224 18.6154 2.44346 19.4591 2.44346C20.368 2.44346 21.2203 2.86964 21.9553 3.62198C21.9596 3.62633 21.9683 3.63502 21.9726 3.63937L23.7209 2.07816C23.7165 2.06947 23.7122 2.06512 23.7035 2.06077Z" fill="#0080F9"/>
<path d="M27.0955 11.2845C27.0259 7.48368 25.6996 4.08294 23.7209 2.07816C23.7165 2.07381 23.7078 2.06511 23.7035 2.06076L21.9553 3.62197C21.9596 3.62632 21.9683 3.63502 21.9727 3.63936C23.4599 5.16578 24.4775 8.00553 24.5689 11.2845C24.5689 11.2932 24.5689 11.3019 24.5689 11.3106H27.0912C27.0955 11.3019 27.0955 11.2932 27.0955 11.2845Z" fill="url(#paint7_linear_2_131)"/>
<path d="M27.0955 11.3106C27.0955 11.3019 27.0955 11.2932 27.0955 11.2845H24.5732C24.5732 11.2932 24.5732 11.3019 24.5732 11.3106C24.5776 11.4628 24.5776 11.6194 24.5776 11.7759C24.5776 12.6718 24.4428 13.3937 24.1731 13.9155C24.1688 13.9242 24.1644 13.9329 24.1601 13.9373L26.0388 15.8942C26.0431 15.8855 26.0475 15.8812 26.0518 15.8725C26.7346 14.8201 27.0912 13.3545 27.0912 11.5846C27.0955 11.4889 27.0955 11.3976 27.0955 11.3106Z" fill="url(#paint8_linear_2_131)"/>
<path d="M24.1731 13.9112C24.1688 13.9199 24.1644 13.9286 24.1601 13.9329C23.9253 14.3721 23.5904 14.6679 23.1512 14.794L24.0079 17.4946C24.121 17.4554 24.2297 17.4119 24.3384 17.3641C24.3688 17.351 24.4036 17.3336 24.4341 17.3206C24.4515 17.3119 24.4689 17.3032 24.4906 17.2945C25.0603 17.0075 25.5561 16.5813 25.9213 16.0595C25.9431 16.0247 25.9692 15.9942 25.9909 15.9594C26.0083 15.9377 26.0214 15.9116 26.0388 15.8855C26.0431 15.8768 26.0475 15.8725 26.0518 15.8638L24.1731 13.9112Z" fill="url(#paint9_linear_2_131)"/>
<path d="M22.6075 14.8723C22.3379 14.8766 22.0683 14.8244 21.8204 14.72L20.942 17.4859C21.4334 17.6555 21.9596 17.7294 22.5467 17.7294C23.0511 17.7337 23.5556 17.6555 24.0339 17.4946L23.1772 14.794C22.9902 14.8462 22.7989 14.8723 22.6075 14.8723Z" fill="url(#paint10_linear_2_131)"/>
<path d="M20.8507 13.9242C20.8463 13.9199 20.842 13.9112 20.8333 13.9068L18.8154 16.0073C18.8198 16.0116 18.8285 16.0203 18.8328 16.0247C19.533 16.7727 20.2027 17.238 20.9637 17.4902L21.8422 14.7287C21.5204 14.5896 21.2116 14.3417 20.8507 13.9242Z" fill="url(#paint11_linear_2_131)"/>
<path d="M20.8333 13.9068C20.2288 13.2023 19.4765 12.0282 18.298 10.1321L16.7628 7.57066L16.7498 7.54892L14.9668 10.2191L14.9798 10.2408L16.067 12.0716C17.1238 13.8372 17.9805 15.1114 18.8111 16.0029C18.8155 16.0073 18.8242 16.016 18.8285 16.0203L20.8463 13.9199C20.8463 13.9199 20.842 13.9112 20.8333 13.9068Z" fill="url(#paint12_linear_2_131)"/>
<defs>
<linearGradient id="paint0_linear_2_131" x1="15.5816" y1="9.15863" x2="9.66688" y2="1.40835" gradientUnits="userSpaceOnUse">
<stop offset="0.0006" stop-color="#0867DF"/>
<stop offset="0.4539" stop-color="#0867DF"/>
<stop offset="0.8591" stop-color="#0064DF"/>
</linearGradient>
<linearGradient id="paint1_linear_2_131" x1="4.06691" y1="4.13805" x2="8.12179" y2="1.05962" gradientUnits="userSpaceOnUse">
<stop offset="0.1323" stop-color="#0064DF"/>
<stop offset="0.9988" stop-color="#0064DF"/>
</linearGradient>
<linearGradient id="paint2_linear_2_131" x1="2.34822" y1="8.65552" x2="3.97478" y2="4.56097" gradientUnits="userSpaceOnUse">
<stop offset="0.0147" stop-color="#0471E9"/>
<stop offset="0.6881" stop-color="#0064DF"/>
</linearGradient>
<linearGradient id="paint3_linear_2_131" x1="2.12733" y1="11.6135" x2="2.31554" y2="9.11282" gradientUnits="userSpaceOnUse">
<stop offset="0.0731" stop-color="#0279F1"/>
<stop offset="0.9943" stop-color="#0471E9"/>
</linearGradient>
<linearGradient id="paint4_linear_2_131" x1="2.23126" y1="12.9717" x2="2.09663" y2="11.9699" gradientUnits="userSpaceOnUse">
<stop offset="0.0731" stop-color="#0080F9"/>
<stop offset="1" stop-color="#0279F1"/>
</linearGradient>
<linearGradient id="paint5_linear_2_131" x1="2.15179" y1="13.235" x2="2.99078" y2="15.0144" gradientUnits="userSpaceOnUse">
<stop offset="0.0731" stop-color="#0080F9"/>
<stop offset="1" stop-color="#0080F9"/>
</linearGradient>
<linearGradient id="paint6_linear_2_131" x1="15.0469" y1="4.6248" x2="16.1561" y2="3.09076" gradientUnits="userSpaceOnUse">
<stop offset="0.2799" stop-color="#0080F9"/>
<stop offset="0.9141" stop-color="#0080F9"/>
</linearGradient>
<linearGradient id="paint7_linear_2_131" x1="23.48" y1="2.6366" x2="25.8004" y2="11.1723" gradientUnits="userSpaceOnUse">
<stop stop-color="#0080F9"/>
<stop offset="0.9995" stop-color="#0080F9"/>
</linearGradient>
<linearGradient id="paint8_linear_2_131" x1="26.3606" y1="11.4989" x2="24.8921" y2="14.4664" gradientUnits="userSpaceOnUse">
<stop offset="0.0619" stop-color="#0080F9"/>
<stop offset="1" stop-color="#0080F9"/>
</linearGradient>
<linearGradient id="paint9_linear_2_131" x1="23.7247" y1="16.0392" x2="25.0974" y2="15.1043" gradientUnits="userSpaceOnUse">
<stop stop-color="#0279F1"/>
<stop offset="1" stop-color="#0080F9"/>
</linearGradient>
<linearGradient id="paint10_linear_2_131" x1="21.5721" y1="16.2225" x2="23.4796" y2="16.2225" gradientUnits="userSpaceOnUse">
<stop stop-color="#0377EF"/>
<stop offset="0.9994" stop-color="#0279F1"/>
</linearGradient>
<linearGradient id="paint11_linear_2_131" x1="19.9137" y1="15.1718" x2="21.2851" y2="15.9786" gradientUnits="userSpaceOnUse">
<stop offset="0.0019" stop-color="#0471E9"/>
<stop offset="1" stop-color="#0377EF"/>
</linearGradient>
<linearGradient id="paint12_linear_2_131" x1="15.7305" y1="9.22266" x2="20.1235" y2="14.746" gradientUnits="userSpaceOnUse">
<stop offset="0.2765" stop-color="#0867DF"/>
<stop offset="1" stop-color="#0471E9"/>
</linearGradient>
</defs>
</svg>
